# xmcd CD database file
#
# Track frame offsets:
#	150
#	31490
#	57675
#	83597
#	110350
#	135302
#	161252
#	192010
#	213905
#	234162
#	250684
#	267290
#	284240
#
# Disc length: 4024 seconds
#
# Revision: 0
# Processed by: cddbd v1.5.2PL0 Copyright (c) Steve Scherf et al.
# Submitted via: CDex 1.70beta2
#
DISCID=ad0fb60d
DTITLE=Hue and Cry - Next Move
DYEAR=1999
DGENRE=Jazz
TTITLE0=She Moves Through The Wires
TTITLE1=I Didn´t Know
TTITLE2=Sign ´O´ The Times
TTITLE3=Sonny Cried
TTITLE4=Once In A Lifetime
TTITLE5=Next Move
TTITLE6=24/7
TTITLE7=Speed O´ Lite
TTITLE8=Pawn Of The Weekend
TTITLE9=Next Move (Radio Edit)
TTITLE10=I Didn´t Know (Radio Edit)
TTITLE11=24/7 (Radio Edit)
TTITLE12=Speed Of Lite (Radio Edit)
EXTD=YEAR: 1999
EXTT0=
EXTT1=
EXTT2=
EXTT3=
EXTT4=
EXTT5=
EXTT6=
EXTT7=
EXTT8=
EXTT9=
EXTT10=
EXTT11=
EXTT12=
PLAYORDER=
